<?xml version="1.0" encoding="UTF-8" standalone="no"?>
<svg xmlns:rdf="http://www.w3.org/1999/02/22-rdf-syntax-ns#" xmlns="http://www.w3.org/2000/svg" height="127.56mm" width="78.367mm" version="1.1" xmlns:cc="http://creativecommons.org/ns#" xmlns:dc="http://purl.org/dc/elements/1.1/" viewBox="0 0 277.67603 452.00077">
<g fill="#6e6e6e">
<rect style="color-rendering:auto;color:#000000;isolation:auto;mix-blend-mode:normal;shape-rendering:auto;solid-color:#000000;image-rendering:auto" height="200" width="1" y="-.30217" x="888.64"/>
<rect style="color-rendering:auto;color:#000000;isolation:auto;mix-blend-mode:normal;shape-rendering:auto;solid-color:#000000;image-rendering:auto" transform="rotate(90)" height="400" width="1" y="-1088.6" x="190.7"/>
<text style="word-spacing:0px;letter-spacing:0px" xml:space="preserve" font-size="15px" y="216.48769" x="884.36914" font-family="sans-serif" line-height="125%"><tspan y="216.48769" x="884.36914">0</tspan></text>
<text style="word-spacing:0px;letter-spacing:0px" xml:space="preserve" font-size="15px" y="12.724011" x="996.30847" font-family="sans-serif" line-height="125%"><tspan y="12.724011" x="996.30847">μ=0, σ<tspan style="baseline-shift:super" font-size="65%">2</tspan>=1.0</tspan><tspan y="31.47401" x="996.30847">μ=0, σ<tspan style="baseline-shift:super" font-size="65%">2</tspan>=0.2</tspan></text>
</g>
<g stroke="#dcdcdc" fill="none">
<path d="m957.64 8.1955h30" stroke-width="2"/>
<path style="color-rendering:auto;color:#000000;isolation:auto;mix-blend-mode:normal;shape-rendering:auto;solid-color:#000000;image-rendering:auto" d="m959.64 28.196h30" stroke-dasharray="3, 3"/>
<path style="color-rendering:auto;color:#000000;isolation:auto;mix-blend-mode:normal;shape-rendering:auto;solid-color:#000000;image-rendering:auto" d="m689.57 187.9c22.738 0.041 45.583 0.083 68.185-2.294 18.119-2.3429 36.578-8.7262 51.603-19.841 21.987-15.162 37.829-37.867 60.836-51.635 14.889-10.025 34.308-4.774 47.071 6.1696 24.477 19.717 44.195 46.7 74.484 58.168 18.819 7.5614 39.798 8.5316 59.986 9.0724 12.194 0.2324 24.605 0.2509 36.685 0.3587" stroke-width="2"/>
<path style="color-rendering:auto;color:#000000;isolation:auto;mix-blend-mode:normal;shape-rendering:auto;solid-color:#000000;image-rendering:auto" d="m689.57 187.93c40.845-0.2638 81.712 0.5549 122.54-0.4657 11.923 0.093 23.462-6.241 28.88-17.011 12.726-23.861 16.996-51.016 22.995-77.098 5.8126-25.381 9.2321-51.566 18.743-75.924 1.1351-3.9874 6.1929-9.9217 9.7772-4.7024 8.431 14.164 10.433 31.065 14.418 46.83 7.7895 34.256 12.632 69.518 25.739 102.3 4.7474 12.262 14.351 24.375 28.529 25.13 26.215 1.8869 52.564 0.5175 78.833 0.9387h48.393" stroke-dasharray="3, 3"/>
</g>
<g fill="#6e6e6e">
<rect style="color-rendering:auto;color:#000000;isolation:auto;mix-blend-mode:normal;shape-rendering:auto;solid-color:#000000;image-rendering:auto" height="200" width="1" y="-.30217" x="1308.6"/>
<rect style="color-rendering:auto;color:#000000;isolation:auto;mix-blend-mode:normal;shape-rendering:auto;solid-color:#000000;image-rendering:auto" transform="rotate(90)" height="230" width="1" y="-1530.6" x="190.7"/>
<g font-size="15px" font-family="sans-serif">
<text line-height="125%" style="word-spacing:0px;letter-spacing:0px" y="196.48763" x="1286.3667" xml:space="preserve"><tspan y="196.48763" x="1286.3667">0</tspan></text>
<text style="word-spacing:0px;letter-spacing:0px" xml:space="preserve" y="17.164871" x="1286.7549" line-height="125%"><tspan y="17.164871" x="1286.7549">1</tspan></text>
<text line-height="125%" style="word-spacing:0px;letter-spacing:0px" y="16.487091" x="1284.3701" xml:space="preserve"><tspan y="16.487091" x="1284.3701"/></text>
<text line-height="125%" style="word-spacing:0px;letter-spacing:0px" y="107.65776" x="1272.3701" xml:space="preserve"><tspan y="107.65776" x="1272.3701">0.5</tspan></text>
<text style="word-spacing:0px;letter-spacing:0px" xml:space="preserve" y="216.48769" x="1333.9829" line-height="125%"><tspan y="216.48769" x="1333.9829">1</tspan></text>
<text line-height="125%" style="word-spacing:0px;letter-spacing:0px" y="216.48769" x="1364.3162" xml:space="preserve"><tspan y="216.48769" x="1364.3162">2</tspan></text>
<text style="word-spacing:0px;letter-spacing:0px" xml:space="preserve" y="216.48769" x="1393.6443" line-height="125%"><tspan y="216.48769" x="1393.6443">3</tspan></text>
<text line-height="125%" style="word-spacing:0px;letter-spacing:0px" y="216.48769" x="1424.6699" xml:space="preserve"><tspan y="216.48769" x="1424.6699">4</tspan></text>
<text style="word-spacing:0px;letter-spacing:0px" xml:space="preserve" y="216.48769" x="1453.192" line-height="125%"><tspan y="216.48769" x="1453.192">5</tspan></text>
<text line-height="125%" style="word-spacing:0px;letter-spacing:0px" y="216.48769" x="1484.064" xml:space="preserve"><tspan y="216.48769" x="1484.064">6</tspan></text>
</g>
</g>
<path style="color-rendering:auto;color:#000000;isolation:auto;mix-blend-mode:normal;shape-rendering:auto;solid-color:#000000;image-rendering:auto" d="m1308.6 190.95h30v-30h30v-30h30v-30h30v-30h30v-30h30v-30h30" stroke="#dcdcdc" stroke-width="1.5" fill="none"/>
<text style="word-spacing:0px;letter-spacing:0px" xml:space="preserve" font-size="40px" y="241.70012" x="1411.2566" font-family="sans-serif" line-height="125%" fill="#dcdcdc"><tspan font-size="20px" font-style="italic" y="241.70012" x="1411.2566" font-family="&apos;Century Schoolbook L&apos;" fill="#dcdcdc">x</tspan></text>
<text style="word-spacing:0px;letter-spacing:0px" line-height="125%" font-size="40px" y="105.82785" x="1215.3596" font-family="sans-serif" xml:space="preserve" fill="#dcdcdc"><tspan font-size="20px" font-style="italic" y="105.82785" x="1215.3596" font-family="&apos;Century Schoolbook L&apos;" fill="#dcdcdc">F<tspan style="baseline-shift:sub" font-size="65%">X</tspan>(x)</tspan></text>
<g fill="#6e6e6e">
<rect style="color-rendering:auto;color:#000000;isolation:auto;mix-blend-mode:normal;shape-rendering:auto;solid-color:#000000;image-rendering:auto" height="200" width="1" y="240" x="55.677"/>
<rect style="color-rendering:auto;color:#000000;isolation:auto;mix-blend-mode:normal;shape-rendering:auto;solid-color:#000000;image-rendering:auto" transform="rotate(90)" height="230" width="1" y="-277.68" x="431"/>
<text style="word-spacing:0px;letter-spacing:0px" xml:space="preserve" font-size="15px" y="436.48834" x="33.364944" font-family="sans-serif" line-height="125%"><tspan y="436.48834" x="33.364944">0</tspan></text>
<text font-size="15px" line-height="125%" style="word-spacing:0px;letter-spacing:0px" y="257.16556" x="33.75325" font-family="sans-serif" xml:space="preserve"><tspan y="257.16556" x="33.75325">1</tspan></text>
</g>
<text style="word-spacing:0px;letter-spacing:0px" line-height="125%" font-size="40px" y="451.70074" x="158.25447" font-family="sans-serif" xml:space="preserve" fill="#dcdcdc"><tspan font-size="20px" font-style="italic" y="451.70074" x="158.25447" font-family="&apos;Century Schoolbook L&apos;" fill="#dcdcdc">x</tspan></text>
<text style="word-spacing:0px;letter-spacing:0px" xml:space="preserve" font-size="40px" y="345.82855" x="2.3579855" font-family="sans-serif" line-height="125%" fill="#dcdcdc"><tspan font-size="20px" font-style="italic" y="345.82855" x="2.3579855" font-family="&apos;Century Schoolbook L&apos;" fill="#dcdcdc">F<tspan style="baseline-shift:sub" font-size="65%">X</tspan>(x)</tspan></text>
<path style="color-rendering:auto;color:#000000;isolation:auto;mix-blend-mode:normal;shape-rendering:auto;solid-color:#000000;image-rendering:auto" d="m275.68 241.58c-130.02 0-96.561 188.34-220 188.34" stroke="#dcdcdc" stroke-width="2.1597" fill="none"/>
<g fill="#6e6e6e">
<rect style="color-rendering:auto;color:#000000;isolation:auto;mix-blend-mode:normal;shape-rendering:auto;solid-color:#000000;image-rendering:auto" height="200" width="1" y=".0000049372" x="55.677"/>
<rect style="color-rendering:auto;color:#000000;isolation:auto;mix-blend-mode:normal;shape-rendering:auto;solid-color:#000000;image-rendering:auto" transform="rotate(90)" height="230" width="1" y="-277.68" x="191"/>
<text font-size="15px" line-height="125%" style="word-spacing:0px;letter-spacing:0px" y="196.48763" x="33.364944" font-family="sans-serif" xml:space="preserve"><tspan y="196.48763" x="33.364944">0</tspan></text>
<text style="word-spacing:0px;letter-spacing:0px" xml:space="preserve" font-size="15px" y="17.164871" x="33.75325" font-family="sans-serif" line-height="125%"><tspan y="17.164871" x="33.75325">1</tspan></text>
</g>
<text style="word-spacing:0px;letter-spacing:0px" xml:space="preserve" font-size="40px" y="211.70003" x="158.25447" font-family="sans-serif" line-height="125%" fill="#dcdcdc"><tspan font-size="20px" font-style="italic" y="211.70003" x="158.25447" font-family="&apos;Century Schoolbook L&apos;" fill="#dcdcdc">x</tspan></text>
<g>
<text style="letter-spacing:0px;color-rendering:auto;text-decoration-color:#000000;color:#000000;shape-rendering:auto;solid-color:#000000;text-decoration-line:none;text-rendering:auto;mix-blend-mode:normal;block-progression:tb;text-indent:0;image-rendering:auto;white-space:normal;text-decoration-style:solid;word-spacing:0px;isolation:auto;text-transform:none" font-family="&apos;Century Schoolbook L&apos;" xml:space="preserve" font-size="20px" line-height="125%" y="105.27995" x="-0.32426542" font-style="italic" fill="#dcdcdc"><tspan x="-0.32426542" y="105.27995">ρ<tspan style="letter-spacing:0px;baseline-shift:sub;color-rendering:auto;text-decoration-color:#000000;color:#000000;shape-rendering:auto;solid-color:#000000;text-decoration-line:none;text-rendering:auto;mix-blend-mode:normal;block-progression:tb;text-indent:0;image-rendering:auto;white-space:normal;text-decoration-style:solid;word-spacing:0px;isolation:auto;text-transform:none" font-family="&apos;Century Schoolbook L&apos;" font-size="65%" line-height="125%" font-style="italic" fill="#dcdcdc">X</tspan>(x)</tspan></text>
<path style="color-rendering:auto;color:#000000;isolation:auto;mix-blend-mode:normal;shape-rendering:auto;solid-color:#000000;image-rendering:auto" d="m55.567 187.56c64.11 0 61.175-169.81 111.62-169.81 50.447 0 50.216 169.81 108.36 169.81" stroke="#dcdcdc" stroke-width="2.1597" fill="none"/>
<g stroke="#6e6e6e" fill="#6e6e6e">
<path style="color-rendering:auto;color:#000000;isolation:auto;mix-blend-mode:normal;shape-rendering:auto;solid-color:#000000;image-rendering:auto" stroke-dasharray="3.25108111, 3.25108111" d="m200.18 0v431" stroke-width="1.0837"/>
<circle style="color-rendering:auto;color:#000000;isolation:auto;mix-blend-mode:normal;shape-rendering:auto;solid-color:#000000;image-rendering:auto" stroke-dasharray="1.42857159, 1.42857159" cx="200.18" cy="50.5" r="4.7619" stroke-width=".47619"/>
<circle style="color-rendering:auto;color:#000000;isolation:auto;mix-blend-mode:normal;shape-rendering:auto;solid-color:#000000;image-rendering:auto" stroke-width=".47619" stroke-dasharray="1.42857159, 1.42857159" cy="276.5" cx="200.18" r="4.7619"/>
</g>
</g>
<text style="word-spacing:0px;letter-spacing:0px" xml:space="preserve" font-size="40px" y="426.70065" x="207.25441" font-family="sans-serif" line-height="125%" fill="#dcdcdc"><tspan font-size="20px" font-style="italic" y="426.70065" x="207.25441" font-family="&apos;Century Schoolbook L&apos;" fill="#dcdcdc">a</tspan></text>
<text style="word-spacing:0px;letter-spacing:0px" line-height="125%" font-size="40px" y="186.69994" x="207.25441" font-family="sans-serif" xml:space="preserve" fill="#dcdcdc"><tspan font-size="20px" font-style="italic" y="186.69994" x="207.25441" font-family="&apos;Century Schoolbook L&apos;" fill="#dcdcdc">a</tspan></text>
<path style="color-rendering:auto;color:#000000;isolation:auto;mix-blend-mode:normal;shape-rendering:auto;solid-color:#000000;image-rendering:auto" d="m167.19 18.824c-6.003 0-11.177 2.4915-15.906 6.9981-4.7293 4.5065-8.9544 11.038-12.832 18.932-7.7554 15.787-14.125 36.987-20.922 58.227-6.7969 21.239-14.02 42.521-23.643 58.598-9.5378 15.935-21.605 26.86-37.889 27.051v2.3711h144.18v-137.74c-1.2718-2.9673-2.5718-5.8166-3.916-8.4981-3.9571-7.8933-8.2643-14.425-13.057-18.934-4.7923-4.5089-10.011-7.002-16.014-7.002z" fill-opacity=".078431" fill="#fff"/>
</svg>
